<svg width="1565" height="119" viewBox="0 0 1565 119" fill="none" xmlns="http://www.w3.org/2000/svg">
<path d="M0.768126 117V4.99999H86.0481V27.4H25.4081V51.24H78.8481V73.64H25.4081V117H0.768126ZM103.688 21.8V0.199997H129.288V21.8H103.688ZM104.328 117V31.24H128.648V117H104.328ZM151.489 117V31.24H175.809V43.4C182.956 34.2267 191.329 29.64 200.929 29.64C210.103 29.64 217.249 32.4667 222.369 38.12C227.489 43.7733 230.049 51.56 230.049 61.48V117H205.729V69.16C205.729 63.5067 204.449 59.1867 201.889 56.2C199.329 53.2133 195.703 51.72 191.009 51.72C186.316 51.72 182.583 53.2133 179.809 56.2C177.143 59.1867 175.809 63.5067 175.809 69.16V117H151.489ZM286.377 118.6C275.71 118.6 266.537 114.6 258.857 106.6C251.177 98.6 247.337 87.72 247.337 73.96C247.337 60.3067 251.124 49.5333 258.697 41.64C266.377 33.64 275.604 29.64 286.377 29.64C297.044 29.64 305.95 33.9067 313.097 42.44V0.199997H337.417V117H313.097V104.68C306.27 113.96 297.364 118.6 286.377 118.6ZM277.737 91.4C281.79 95.7733 286.75 97.96 292.617 97.96C298.484 97.96 303.39 95.7733 307.337 91.4C311.39 86.92 313.417 81.1067 313.417 73.96C313.417 67.0267 311.39 61.3733 307.337 57C303.39 52.52 298.484 50.28 292.617 50.28C286.75 50.28 281.79 52.52 277.737 57C273.684 61.3733 271.657 67.1333 271.657 74.28C271.657 81.2133 273.684 86.92 277.737 91.4ZM436.074 118.44C428.074 118.44 421.888 116.52 417.514 112.68C413.248 108.733 411.114 102.067 411.114 92.68V52.04H400.874V31.24H411.114V9.31999H435.434V31.24H455.594V52.04H435.434V88.68C435.434 94.2267 438.048 97 443.274 97C447.541 97 451.541 95.9867 455.274 93.96V113.48C449.728 116.787 443.328 118.44 436.074 118.44ZM546.377 105.96C537.524 114.6 526.484 118.92 513.257 118.92C500.03 118.92 488.99 114.653 480.137 106.12C471.39 97.48 467.017 86.8667 467.017 74.28C467.017 61.8 471.444 51.24 480.297 42.6C489.257 33.96 500.35 29.64 513.577 29.64C526.804 29.64 537.79 33.96 546.537 42.6C555.39 51.1333 559.817 61.6933 559.817 74.28C559.817 86.76 555.337 97.32 546.377 105.96ZM513.577 97.96C520.297 97.96 525.684 95.72 529.737 91.24C533.79 86.6533 535.817 81 535.817 74.28C535.817 67.7733 533.684 62.2267 529.417 57.64C525.257 52.9467 519.87 50.6 513.257 50.6C506.537 50.6 501.15 52.8933 497.097 57.48C493.044 61.96 491.017 67.56 491.017 74.28C491.017 80.7867 493.097 86.3867 497.257 91.08C501.524 95.6667 506.964 97.96 513.577 97.96ZM605.907 118.6C596.734 118.6 589.587 115.773 584.467 110.12C579.347 104.467 576.787 96.68 576.787 86.76V31.24H601.107V79.08C601.107 84.7333 602.387 89.0533 604.947 92.04C607.507 95.0267 611.134 96.52 615.827 96.52C620.52 96.52 624.2 95.0267 626.867 92.04C629.64 89.0533 631.027 84.7333 631.027 79.08V31.24H655.347V117H631.027V104.84C623.88 114.013 615.507 118.6 605.907 118.6ZM677.114 117V31.24H701.434V48.52C706.981 35.4 716.101 29.1067 728.794 29.64V55.08H727.514C719.194 55.08 712.741 57.64 708.154 62.76C703.674 67.7733 701.434 75.2933 701.434 85.32V117H677.114ZM774.069 118.6C760.523 118.6 748.256 114.28 737.269 105.64L747.669 89.64C757.056 96.4667 766.069 99.88 774.709 99.88C781.536 99.88 784.949 97.64 784.949 93.16C784.949 92.6267 784.843 92.0933 784.629 91.56C784.523 91.0267 784.256 90.5467 783.829 90.12C783.403 89.6933 782.923 89.32 782.389 89C781.963 88.5733 781.323 88.2 780.469 87.88C779.723 87.4533 779.029 87.1333 778.389 86.92C777.856 86.6 777.056 86.28 775.989 85.96C774.923 85.5333 774.016 85.2133 773.269 85C772.523 84.7867 771.509 84.52 770.229 84.2C768.949 83.7733 767.936 83.4533 767.189 83.24C763.563 82.1733 760.469 81.1067 757.909 80.04C755.456 78.8667 752.843 77.32 750.069 75.4C747.296 73.3733 745.163 70.8667 743.669 67.88C742.283 64.7867 741.589 61.2133 741.589 57.16C741.589 48.7333 744.576 42.12 750.549 37.32C756.523 32.4133 763.989 29.96 772.949 29.96C784.469 29.96 795.136 33.2667 804.949 39.88L795.669 56.68C786.603 51.3467 778.869 48.68 772.469 48.68C766.496 48.68 763.509 50.76 763.509 54.92C763.509 57.8 768.416 60.8933 778.229 64.2C779.403 64.6267 780.309 64.9467 780.949 65.16C783.829 66.12 786.283 67.0267 788.309 67.88C790.336 68.7333 792.629 69.9067 795.189 71.4C797.749 72.8933 799.776 74.4933 801.269 76.2C802.869 77.8 804.203 79.88 805.269 82.44C806.336 85 806.869 87.8267 806.869 90.92C806.869 100.093 803.829 107.027 797.749 111.72C791.776 116.307 783.883 118.6 774.069 118.6ZM872.751 21.8V0.199997H898.351V21.8H872.751ZM873.391 117V31.24H897.711V117H873.391ZM920.552 117V31.24H944.872V43.4C952.019 34.2267 960.392 29.64 969.992 29.64C979.165 29.64 986.312 32.4667 991.432 38.12C996.552 43.7733 999.112 51.56 999.112 61.48V117H974.792V69.16C974.792 63.5067 973.512 59.1867 970.952 56.2C968.392 53.2133 964.765 51.72 960.072 51.72C955.379 51.72 951.645 53.2133 948.872 56.2C946.205 59.1867 944.872 63.5067 944.872 69.16V117H920.552ZM1070.77 117V4.99999H1121.97C1136.15 4.99999 1147.03 8.78666 1154.61 16.36C1161.01 22.76 1164.21 31.4 1164.21 42.28C1164.21 59.4533 1156.21 71.0267 1140.21 77L1167.57 117H1138.77L1114.45 81.16H1095.41V117H1070.77ZM1095.41 59.4H1120.37C1126.34 59.4 1130.98 57.96 1134.29 55.08C1137.59 52.0933 1139.25 48.1467 1139.25 43.24C1139.25 38.0133 1137.54 34.0667 1134.13 31.4C1130.71 28.6267 1125.97 27.24 1119.89 27.24H1095.41V59.4ZM1212.31 118.6C1203.14 118.6 1195.99 115.773 1190.87 110.12C1185.75 104.467 1183.19 96.68 1183.19 86.76V31.24H1207.51V79.08C1207.51 84.7333 1208.79 89.0533 1211.35 92.04C1213.91 95.0267 1217.54 96.52 1222.23 96.52C1226.93 96.52 1230.61 95.0267 1233.27 92.04C1236.05 89.0533 1237.43 84.7333 1237.43 79.08V31.24H1261.75V117H1237.43V104.84C1230.29 114.013 1221.91 118.6 1212.31 118.6ZM1313.6 118.6C1300.05 118.6 1287.79 114.28 1276.8 105.64L1287.2 89.64C1296.59 96.4667 1305.6 99.88 1314.24 99.88C1321.07 99.88 1324.48 97.64 1324.48 93.16C1324.48 92.6267 1324.37 92.0933 1324.16 91.56C1324.05 91.0267 1323.79 90.5467 1323.36 90.12C1322.93 89.6933 1322.45 89.32 1321.92 89C1321.49 88.5733 1320.85 88.2 1320 87.88C1319.25 87.4533 1318.56 87.1333 1317.92 86.92C1317.39 86.6 1316.59 86.28 1315.52 85.96C1314.45 85.5333 1313.55 85.2133 1312.8 85C1312.05 84.7867 1311.04 84.52 1309.76 84.2C1308.48 83.7733 1307.47 83.4533 1306.72 83.24C1303.09 82.1733 1300 81.1067 1297.44 80.04C1294.99 78.8667 1292.37 77.32 1289.6 75.4C1286.83 73.3733 1284.69 70.8667 1283.2 67.88C1281.81 64.7867 1281.12 61.2133 1281.12 57.16C1281.12 48.7333 1284.11 42.12 1290.08 37.32C1296.05 32.4133 1303.52 29.96 1312.48 29.96C1324 29.96 1334.67 33.2667 1344.48 39.88L1335.2 56.68C1326.13 51.3467 1318.4 48.68 1312 48.68C1306.03 48.68 1303.04 50.76 1303.04 54.92C1303.04 57.8 1307.95 60.8933 1317.76 64.2C1318.93 64.6267 1319.84 64.9467 1320.48 65.16C1323.36 66.12 1325.81 67.0267 1327.84 67.88C1329.87 68.7333 1332.16 69.9067 1334.72 71.4C1337.28 72.8933 1339.31 74.4933 1340.8 76.2C1342.4 77.8 1343.73 79.88 1344.8 82.44C1345.87 85 1346.4 87.8267 1346.4 90.92C1346.4 100.093 1343.36 107.027 1337.28 111.72C1331.31 116.307 1323.41 118.6 1313.6 118.6ZM1392.35 118.6C1378.8 118.6 1366.54 114.28 1355.55 105.64L1365.95 89.64C1375.34 96.4667 1384.35 99.88 1392.99 99.88C1399.82 99.88 1403.23 97.64 1403.23 93.16C1403.23 92.6267 1403.12 92.0933 1402.91 91.56C1402.8 91.0267 1402.54 90.5467 1402.11 90.12C1401.68 89.6933 1401.2 89.32 1400.67 89C1400.24 88.5733 1399.6 88.2 1398.75 87.88C1398 87.4533 1397.31 87.1333 1396.67 86.92C1396.14 86.6 1395.34 86.28 1394.27 85.96C1393.2 85.5333 1392.3 85.2133 1391.55 85C1390.8 84.7867 1389.79 84.52 1388.51 84.2C1387.23 83.7733 1386.22 83.4533 1385.47 83.24C1381.84 82.1733 1378.75 81.1067 1376.19 80.04C1373.74 78.8667 1371.12 77.32 1368.35 75.4C1365.58 73.3733 1363.44 70.8667 1361.95 67.88C1360.56 64.7867 1359.87 61.2133 1359.87 57.16C1359.87 48.7333 1362.86 42.12 1368.83 37.32C1374.8 32.4133 1382.27 29.96 1391.23 29.96C1402.75 29.96 1413.42 33.2667 1423.23 39.88L1413.95 56.68C1404.88 51.3467 1397.15 48.68 1390.75 48.68C1384.78 48.68 1381.79 50.76 1381.79 54.92C1381.79 57.8 1386.7 60.8933 1396.51 64.2C1397.68 64.6267 1398.59 64.9467 1399.23 65.16C1402.11 66.12 1404.56 67.0267 1406.59 67.88C1408.62 68.7333 1410.91 69.9067 1413.47 71.4C1416.03 72.8933 1418.06 74.4933 1419.55 76.2C1421.15 77.8 1422.48 79.88 1423.55 82.44C1424.62 85 1425.15 87.8267 1425.15 90.92C1425.15 100.093 1422.11 107.027 1416.03 111.72C1410.06 116.307 1402.16 118.6 1392.35 118.6ZM1443.06 21.8V0.199997H1468.66V21.8H1443.06ZM1443.7 117V31.24H1468.02V117H1443.7ZM1515.18 118.6C1506.76 118.6 1499.72 116.253 1494.06 111.56C1488.52 106.867 1485.74 100.36 1485.74 92.04C1485.74 82.9733 1488.84 76.1467 1495.02 71.56C1501.32 66.9733 1509.74 64.68 1520.3 64.68C1527.45 64.68 1534.44 65.8533 1541.26 68.2V66.76C1541.26 56.3067 1535.13 51.08 1522.86 51.08C1515.5 51.08 1507.61 52.6267 1499.18 55.72L1493.1 37.16C1503.56 32.5733 1514.65 30.28 1526.38 30.28C1539.29 30.28 1548.94 33.48 1555.34 39.88C1561.53 46.0667 1564.62 55.1867 1564.62 67.24V117H1541.1V107.72C1534.6 114.973 1525.96 118.6 1515.18 118.6ZM1522.54 101.8C1528.2 101.8 1532.78 100.413 1536.3 97.64C1539.82 94.76 1541.58 91.1333 1541.58 86.76V82.44C1537 80.3067 1531.82 79.24 1526.06 79.24C1520.73 79.24 1516.57 80.3067 1513.58 82.44C1510.7 84.4667 1509.26 87.4533 1509.26 91.4C1509.26 94.6 1510.49 97.16 1512.94 99.08C1515.4 100.893 1518.6 101.8 1522.54 101.8Z" fill="white"/>
</svg>
